# xmcd CD database file
#
# Track frame offsets:
#	150
#	47464
#	99327
#	163124
#	211678
#	273185
#
# Disc length: 4150 seconds
#
# Revision: 0
# Processed by: cddbd v1.5.2PL0 Copyright (c) Steve Scherf et al.
# Submitted via: CDex 1.51
#
DISCID=42103406
DTITLE=Al Foster Quartet - Love, Peace and Jazz
DYEAR=2008
DGENRE=Jazz
TTITLE0=The Chief
TTITLE1=Esp
TTITLE2=Blue in Green
TTITLE3=Peter's Mood
TTITLE4=Brandyn
TTITLE5=Fungii Mama
EXTD=YEAR: 2008
EXTT0=
EXTT1=
EXTT2=
EXTT3=
EXTT4=
EXTT5=
PLAYORDER=
